<svg width="3000" height="1500" viewBox="0 0 3000 1500" fill="none" xmlns="http://www.w3.org/2000/svg">
    <rect width="3000" height="1500" rx="25" fill="#CC4444"/>
    <path d="M1345 410H1095C1081.19 410 1070 421.193 1070 435V485C1070 498.807 1081.19 510 1095 510H1170L1170 885C1170 898.807 1181.19 910 1195 910H1245C1258.81 910 1270 898.807 1270 885V510H1345C1358.81 510 1370 498.807 1370 485V435C1370 421.193 1358.81 410 1345 410Z" fill="white"/>
    <path fill-rule="evenodd" clip-rule="evenodd" d="M1420 560C1420 477.157 1487.16 410 1570 410C1652.84 410 1720 477.157 1720 560V760C1720 842.843 1652.84 910 1570 910C1487.16 910 1420 842.843 1420 760V560ZM1570 510C1542.39 510 1520 532.386 1520 560V760C1520 787.614 1542.39 810 1570 810C1597.61 810 1620 787.614 1620 760V560C1620 532.386 1597.61 510 1570 510Z" fill="white"/>
    <path d="M1865 410H1815C1801.19 410 1790 421.193 1790 435V885C1790 898.807 1801.19 910 1815 910H1865C1878.81 910 1890 898.807 1890 885V671.803L1992.63 896.183C1996.74 904.376 2005.21 910 2015 910H2065C2078.81 910 2090 898.807 2090 885V435C2090 421.193 2078.81 410 2065 410H2015C2001.19 410 1990 421.193 1990 435V648.197L1887.07 423.246C1882.86 415.364 1874.56 410 1865 410Z" fill="white"/>
    <path d="M900 435C900 421.193 911.193 410 925 410H975C988.807 410 1000 421.193 1000 435V485C1000 498.807 988.807 510 975 510H925C911.193 510 900 498.807 900 485V435Z" fill="white"/>
    <path fill-rule="evenodd" clip-rule="evenodd" d="M1025 985V1035C1025 1048.81 1036.19 1060 1050 1060H2075C2088.81 1060 2100 1048.81 2100 1035V985C2100 971.193 2088.81 960 2075 960H1050C1036.19 960 1025 971.193 1025 985Z" fill="white"/>
    <path fill-rule="evenodd" clip-rule="evenodd" d="M975 560H925C911.193 560 900 571.193 900 585V1110C900 1137.61 877.614 1160 850 1160C822.386 1160 800 1137.61 800 1110C800 1082.39 822.386 1060 850 1060C863.807 1060 875 1048.81 875 1035V985C875 971.193 863.807 960 850 960C767.157 960 700 1027.16 700 1110C700 1192.84 767.157 1260 850 1260C932.843 1260 1000 1192.84 1000 1110V585C1000 571.193 988.807 560 975 560Z" fill="white"/>
    <path d="M1482.56 1089.91H1397.51C1392.81 1089.91 1389 1093.71 1389 1098.41V1115.42C1389 1120.12 1392.81 1123.92 1397.51 1123.92H1423.02V1251.5C1423.02 1256.19 1426.83 1260 1431.53 1260H1448.54C1453.23 1260 1457.04 1256.19 1457.04 1251.5V1123.92H1482.56C1487.25 1123.92 1491.06 1120.12 1491.06 1115.42V1098.41C1491.06 1093.71 1487.25 1089.91 1482.56 1089.91Z" fill="white"/>
    <path d="M1295.45 1089.91H1278.44C1273.74 1089.91 1269.94 1093.71 1269.94 1098.41V1251.5C1269.94 1256.19 1273.74 1260 1278.44 1260H1295.45C1300.15 1260 1303.96 1256.19 1303.96 1251.5V1178.97L1338.87 1255.3C1340.27 1258.09 1343.15 1260 1346.48 1260H1363.49C1368.19 1260 1371.99 1256.19 1371.99 1251.5V1098.41C1371.99 1093.71 1368.19 1089.91 1363.49 1089.91H1346.48C1341.78 1089.91 1337.97 1093.71 1337.97 1098.41V1170.94L1302.96 1094.41C1301.53 1091.73 1298.7 1089.91 1295.45 1089.91Z" fill="white"/>
    <path fill-rule="evenodd" clip-rule="evenodd" d="M1144.07 1140.93C1144.07 1112.75 1166.91 1089.91 1195.09 1089.91C1223.28 1089.91 1246.12 1112.75 1246.12 1140.93V1208.97C1246.12 1237.15 1223.28 1260 1195.09 1260C1166.91 1260 1144.07 1237.15 1144.07 1208.97V1140.93ZM1195.09 1123.92C1185.7 1123.92 1178.09 1131.54 1178.09 1140.93V1208.97C1178.09 1218.37 1185.7 1225.98 1195.09 1225.98C1204.49 1225.98 1212.1 1218.37 1212.1 1208.97V1140.93C1212.1 1131.54 1204.49 1123.92 1195.09 1123.92Z" fill="white"/>
    <path fill-rule="evenodd" clip-rule="evenodd" d="M1516.57 1089.91H1559.1C1587.28 1089.91 1610.13 1112.75 1610.13 1140.93C1610.13 1154 1605.21 1165.92 1597.13 1174.95C1605.21 1183.98 1610.13 1195.9 1610.13 1208.97V1251.5C1610.13 1256.19 1606.32 1260 1601.62 1260H1584.61C1579.92 1260 1576.11 1256.19 1576.11 1251.5V1208.97C1576.11 1199.58 1568.49 1191.96 1559.1 1191.96H1542.09V1251.5C1542.09 1256.19 1538.28 1260 1533.58 1260H1516.57C1511.88 1260 1508.07 1256.19 1508.07 1251.5V1098.41C1508.07 1093.71 1511.88 1089.91 1516.57 1089.91ZM1559.1 1157.94C1568.49 1157.94 1576.11 1150.33 1576.11 1140.93C1576.11 1131.54 1568.49 1123.92 1559.1 1123.92H1542.09V1157.94H1559.1Z" fill="white"/>
    <path fill-rule="evenodd" clip-rule="evenodd" d="M1633.94 1140.93C1633.94 1112.75 1656.79 1089.91 1684.97 1089.91C1713.15 1089.91 1736 1112.75 1736 1140.93V1251.5C1736 1256.19 1732.19 1260 1727.49 1260H1710.48C1705.79 1260 1701.98 1256.19 1701.98 1251.5V1190.43H1667.96V1251.5C1667.96 1256.19 1664.15 1260 1659.45 1260H1642.44C1637.75 1260 1633.94 1256.19 1633.94 1251.5V1140.93ZM1684.97 1123.92C1675.57 1123.92 1667.96 1131.54 1667.96 1140.93V1157.94H1701.98V1140.93C1701.98 1131.54 1694.36 1123.92 1684.97 1123.92Z" fill="white"/>
    <path fill-rule="evenodd" clip-rule="evenodd" d="M1076.03 1089.91C1047.85 1089.91 1025 1112.75 1025 1140.93V1208.97C1025 1237.15 1047.85 1260 1076.03 1260C1104.21 1260 1127.06 1237.15 1127.06 1208.97C1127.06 1204.27 1123.25 1200.47 1118.55 1200.47H1101.54C1096.85 1200.47 1093.04 1204.27 1093.04 1208.97C1093.04 1218.37 1085.42 1225.98 1076.03 1225.98C1066.63 1225.98 1059.02 1218.37 1059.02 1208.97V1140.93C1059.02 1131.54 1066.63 1123.92 1076.03 1123.92C1085.42 1123.92 1093.04 1131.54 1093.04 1140.93C1093.04 1145.63 1096.85 1149.44 1101.54 1149.44H1118.55C1123.25 1149.44 1127.06 1145.63 1127.06 1140.93C1127.06 1112.75 1104.21 1089.91 1076.03 1089.91Z" fill="white"/>
    <path fill-rule="evenodd" clip-rule="evenodd" d="M1810.84 1089.91C1782.66 1089.91 1759.81 1112.75 1759.81 1140.93V1208.97C1759.81 1237.15 1782.66 1260 1810.84 1260C1839.02 1260 1861.87 1237.15 1861.87 1208.97C1861.87 1204.27 1858.06 1200.47 1853.36 1200.47H1836.35C1831.66 1200.47 1827.85 1204.27 1827.85 1208.97C1827.85 1218.37 1820.23 1225.98 1810.84 1225.98C1801.44 1225.98 1793.83 1218.37 1793.83 1208.97V1140.93C1793.83 1131.54 1801.44 1123.92 1810.84 1123.92C1820.23 1123.92 1827.85 1131.54 1827.85 1140.93C1827.85 1145.63 1831.66 1149.44 1836.35 1149.44H1853.36C1858.06 1149.44 1861.87 1145.63 1861.87 1140.93C1861.87 1112.75 1839.02 1089.91 1810.84 1089.91Z" fill="white"/>
    <path d="M1972.43 1089.91H1887.38C1882.68 1089.91 1878.88 1093.71 1878.88 1098.41V1115.42C1878.88 1120.12 1882.68 1123.92 1887.38 1123.92H1912.9V1251.5C1912.9 1256.19 1916.7 1260 1921.4 1260H1938.41C1943.11 1260 1946.91 1256.19 1946.91 1251.5V1123.92H1972.43C1977.13 1123.92 1980.93 1120.12 1980.93 1115.42V1098.41C1980.93 1093.71 1977.13 1089.91 1972.43 1089.91Z" fill="white"/>
    <path d="M2091.5 1149.44H2074.49C2069.79 1149.44 2065.98 1145.63 2065.98 1140.93C2065.98 1131.54 2058.37 1123.92 2048.97 1123.92C2039.58 1123.92 2031.96 1131.54 2031.96 1140.93C2031.96 1150.33 2039.58 1157.94 2048.97 1157.94C2064.08 1157.94 2077.66 1164.51 2087.01 1174.95C2095.09 1183.98 2100 1195.9 2100 1208.97C2100 1237.15 2077.15 1260 2048.97 1260C2020.79 1260 1997.94 1237.15 1997.94 1208.97C1997.94 1204.27 2001.75 1200.47 2006.45 1200.47H2023.46C2028.15 1200.47 2031.96 1204.27 2031.96 1208.97C2031.96 1218.37 2039.58 1225.98 2048.97 1225.98C2058.37 1225.98 2065.98 1218.37 2065.98 1208.97C2065.98 1199.58 2058.37 1191.96 2048.97 1191.96C2033.86 1191.96 2020.28 1185.39 2010.94 1174.95C2002.86 1165.92 1997.94 1154 1997.94 1140.93C1997.94 1112.75 2020.79 1089.91 2048.97 1089.91C2077.15 1089.91 2100 1112.75 2100 1140.93C2100 1145.63 2096.19 1149.44 2091.5 1149.44Z" fill="white"/>
</svg>
